<?xml version="1.0" encoding="UTF-8"?>
<!DOCTYPE svg PUBLIC "-//W3C//DTD SVG 1.1//EN" "http://www.w3.org/Graphics/SVG/1.1/DTD/svg11.dtd">
<svg xmlns="http://www.w3.org/2000/svg" xmlns:xlink="http://www.w3.org/1999/xlink" version="1.1" width="531px" height="462px" viewBox="-0.5 -0.5 531 462"><defs/><g><path d="M 106.22 287.98 L 155.78 243.02" fill="none" stroke="rgb(0, 0, 0)" stroke-miterlimit="10" pointer-events="stroke"/><ellipse cx="104" cy="290" rx="3" ry="3" fill="rgb(0, 0, 0)" stroke="rgb(0, 0, 0)" pointer-events="all"/><ellipse cx="158" cy="241" rx="3" ry="3" fill="rgb(0, 0, 0)" stroke="rgb(0, 0, 0)" pointer-events="all"/><path d="M 160.24 239.01 L 209.76 194.99" fill="none" stroke="rgb(0, 0, 0)" stroke-miterlimit="10" pointer-events="stroke"/><ellipse cx="158" cy="241" rx="3" ry="3" fill="rgb(0, 0, 0)" stroke="rgb(0, 0, 0)" pointer-events="all"/><ellipse cx="212" cy="193" rx="3" ry="3" fill="rgb(0, 0, 0)" stroke="rgb(0, 0, 0)" pointer-events="all"/><path d="M 9.98 384.75 L 50.02 339.25" fill="none" stroke="rgb(0, 0, 0)" stroke-miterlimit="10" pointer-events="stroke"/><ellipse cx="8" cy="387" rx="3" ry="3" fill="rgb(0, 0, 0)" stroke="rgb(0, 0, 0)" pointer-events="all"/><ellipse cx="52" cy="337" rx="3" ry="3" fill="rgb(0, 0, 0)" stroke="rgb(0, 0, 0)" pointer-events="all"/><path d="M 99 451.88 L 28 449.12" fill="none" stroke="rgb(0, 0, 0)" stroke-miterlimit="10" pointer-events="stroke"/><ellipse cx="102" cy="452" rx="3" ry="3" fill="rgb(0, 0, 0)" stroke="rgb(0, 0, 0)" pointer-events="all"/><ellipse cx="25" cy="449" rx="3" ry="3" fill="rgb(0, 0, 0)" stroke="rgb(0, 0, 0)" pointer-events="all"/><path d="M 100.72 449.29 L 77.28 399.71" fill="none" stroke="rgb(0, 0, 0)" stroke-miterlimit="10" pointer-events="stroke"/><ellipse cx="102" cy="452" rx="3" ry="3" fill="rgb(0, 0, 0)" stroke="rgb(0, 0, 0)" pointer-events="all"/><ellipse cx="76" cy="397" rx="3" ry="3" fill="rgb(0, 0, 0)" stroke="rgb(0, 0, 0)" pointer-events="all"/><path d="M 156.33 394.02 L 165.67 309.98" fill="none" stroke="rgb(0, 0, 0)" stroke-miterlimit="10" pointer-events="stroke"/><ellipse cx="156" cy="397" rx="3" ry="3" fill="rgb(0, 0, 0)" stroke="rgb(0, 0, 0)" pointer-events="all"/><ellipse cx="166" cy="307" rx="3" ry="3" fill="rgb(0, 0, 0)" stroke="rgb(0, 0, 0)" pointer-events="all"/><path d="M 54.23 334.99 L 101.77 292.01" fill="none" stroke="rgb(0, 0, 0)" stroke-miterlimit="10" pointer-events="stroke"/><ellipse cx="52" cy="337" rx="3" ry="3" fill="rgb(0, 0, 0)" stroke="rgb(0, 0, 0)" pointer-events="all"/><ellipse cx="104" cy="290" rx="3" ry="3" fill="rgb(0, 0, 0)" stroke="rgb(0, 0, 0)" pointer-events="all"/><path d="M 250.38 214.53 L 214.62 194.47" fill="none" stroke="rgb(0, 0, 0)" stroke-miterlimit="10" pointer-events="stroke"/><ellipse cx="253" cy="216" rx="3" ry="3" fill="rgb(0, 0, 0)" stroke="rgb(0, 0, 0)" pointer-events="all"/><ellipse cx="212" cy="193" rx="3" ry="3" fill="rgb(0, 0, 0)" stroke="rgb(0, 0, 0)" pointer-events="all"/><path d="M 251.08 218.3 L 204.92 273.7" fill="none" stroke="rgb(0, 0, 0)" stroke-miterlimit="10" pointer-events="stroke"/><ellipse cx="253" cy="216" rx="3" ry="3" fill="rgb(0, 0, 0)" stroke="rgb(0, 0, 0)" pointer-events="all"/><ellipse cx="203" cy="276" rx="3" ry="3" fill="rgb(0, 0, 0)" stroke="rgb(0, 0, 0)" pointer-events="all"/><path d="M 289.21 243.97 L 320.79 215.03" fill="none" stroke="rgb(0, 0, 0)" stroke-miterlimit="10" pointer-events="stroke"/><ellipse cx="287" cy="246" rx="3" ry="3" fill="rgb(0, 0, 0)" stroke="rgb(0, 0, 0)" pointer-events="all"/><ellipse cx="323" cy="213" rx="3" ry="3" fill="rgb(0, 0, 0)" stroke="rgb(0, 0, 0)" pointer-events="all"/><path d="M 257.9 281.68 L 285.1 248.32" fill="none" stroke="rgb(0, 0, 0)" stroke-miterlimit="10" pointer-events="stroke"/><ellipse cx="256" cy="284" rx="3" ry="3" fill="rgb(0, 0, 0)" stroke="rgb(0, 0, 0)" pointer-events="all"/><ellipse cx="287" cy="246" rx="3" ry="3" fill="rgb(0, 0, 0)" stroke="rgb(0, 0, 0)" pointer-events="all"/><path d="M 370.04 220.53 L 325.96 213.47" fill="none" stroke="rgb(0, 0, 0)" stroke-miterlimit="10" pointer-events="stroke"/><ellipse cx="373" cy="221" rx="3" ry="3" fill="rgb(0, 0, 0)" stroke="rgb(0, 0, 0)" pointer-events="all"/><ellipse cx="323" cy="213" rx="3" ry="3" fill="rgb(0, 0, 0)" stroke="rgb(0, 0, 0)" pointer-events="all"/><path d="M 389.76 236 L 375.24 223" fill="none" stroke="rgb(0, 0, 0)" stroke-miterlimit="10" pointer-events="stroke"/><ellipse cx="392" cy="238" rx="3" ry="3" fill="rgb(0, 0, 0)" stroke="rgb(0, 0, 0)" pointer-events="all"/><ellipse cx="373" cy="221" rx="3" ry="3" fill="rgb(0, 0, 0)" stroke="rgb(0, 0, 0)" pointer-events="all"/><path d="M 387.69 256.08 L 391.31 240.92" fill="none" stroke="rgb(0, 0, 0)" stroke-miterlimit="10" pointer-events="stroke"/><ellipse cx="387" cy="259" rx="3" ry="3" fill="rgb(0, 0, 0)" stroke="rgb(0, 0, 0)" pointer-events="all"/><ellipse cx="392" cy="238" rx="3" ry="3" fill="rgb(0, 0, 0)" stroke="rgb(0, 0, 0)" pointer-events="all"/><path d="M 455.88 164.88 L 443.12 152.12" fill="none" stroke="rgb(0, 0, 0)" stroke-miterlimit="10" pointer-events="stroke"/><ellipse cx="458" cy="167" rx="3" ry="3" fill="rgb(0, 0, 0)" stroke="rgb(0, 0, 0)" pointer-events="all"/><ellipse cx="441" cy="150" rx="3" ry="3" fill="rgb(0, 0, 0)" stroke="rgb(0, 0, 0)" pointer-events="all"/><path d="M 439.75 147.27 L 409.25 80.73" fill="none" stroke="rgb(0, 0, 0)" stroke-miterlimit="10" pointer-events="stroke"/><ellipse cx="441" cy="150" rx="3" ry="3" fill="rgb(0, 0, 0)" stroke="rgb(0, 0, 0)" pointer-events="all"/><ellipse cx="408" cy="78" rx="3" ry="3" fill="rgb(0, 0, 0)" stroke="rgb(0, 0, 0)" pointer-events="all"/><path d="M 248.59 104.97 L 243.41 143.03" fill="none" stroke="rgb(0, 0, 0)" stroke-miterlimit="10" pointer-events="stroke"/><ellipse cx="249" cy="102" rx="3" ry="3" fill="rgb(0, 0, 0)" stroke="rgb(0, 0, 0)" pointer-events="all"/><ellipse cx="243" cy="146" rx="3" ry="3" fill="rgb(0, 0, 0)" stroke="rgb(0, 0, 0)" pointer-events="all"/><path d="M 292.03 8.44 L 216.97 19.56" fill="none" stroke="rgb(0, 0, 0)" stroke-miterlimit="10" pointer-events="stroke"/><ellipse cx="295" cy="8" rx="3" ry="3" fill="rgb(0, 0, 0)" stroke="rgb(0, 0, 0)" pointer-events="all"/><ellipse cx="214" cy="20" rx="3" ry="3" fill="rgb(0, 0, 0)" stroke="rgb(0, 0, 0)" pointer-events="all"/><path d="M 405.79 75.97 L 360.21 34.03" fill="none" stroke="rgb(0, 0, 0)" stroke-miterlimit="10" pointer-events="stroke"/><ellipse cx="408" cy="78" rx="3" ry="3" fill="rgb(0, 0, 0)" stroke="rgb(0, 0, 0)" pointer-events="all"/><ellipse cx="358" cy="32" rx="3" ry="3" fill="rgb(0, 0, 0)" stroke="rgb(0, 0, 0)" pointer-events="all"/><path d="M 355.2 30.93 L 297.8 9.07" fill="none" stroke="rgb(0, 0, 0)" stroke-miterlimit="10" pointer-events="stroke"/><ellipse cx="358" cy="32" rx="3" ry="3" fill="rgb(0, 0, 0)" stroke="rgb(0, 0, 0)" pointer-events="all"/><ellipse cx="295" cy="8" rx="3" ry="3" fill="rgb(0, 0, 0)" stroke="rgb(0, 0, 0)" pointer-events="all"/><path d="M 241.35 148.5 L 213.65 190.5" fill="none" stroke="rgb(0, 0, 0)" stroke-miterlimit="10" pointer-events="stroke"/><ellipse cx="243" cy="146" rx="3" ry="3" fill="rgb(0, 0, 0)" stroke="rgb(0, 0, 0)" pointer-events="all"/><ellipse cx="212" cy="193" rx="3" ry="3" fill="rgb(0, 0, 0)" stroke="rgb(0, 0, 0)" pointer-events="all"/><path d="M 246.32 100.66 L 211.68 83.34" fill="none" stroke="rgb(0, 0, 0)" stroke-miterlimit="10" pointer-events="stroke"/><ellipse cx="249" cy="102" rx="3" ry="3" fill="rgb(0, 0, 0)" stroke="rgb(0, 0, 0)" pointer-events="all"/><ellipse cx="209" cy="82" rx="3" ry="3" fill="rgb(0, 0, 0)" stroke="rgb(0, 0, 0)" pointer-events="all"/><path d="M 206.38 80.54 L 166.62 58.46" fill="none" stroke="rgb(0, 0, 0)" stroke-miterlimit="10" pointer-events="stroke"/><ellipse cx="209" cy="82" rx="3" ry="3" fill="rgb(0, 0, 0)" stroke="rgb(0, 0, 0)" pointer-events="all"/><ellipse cx="164" cy="57" rx="3" ry="3" fill="rgb(0, 0, 0)" stroke="rgb(0, 0, 0)" pointer-events="all"/><path d="M 166.41 55.22 L 211.59 21.78" fill="none" stroke="rgb(0, 0, 0)" stroke-miterlimit="10" pointer-events="stroke"/><ellipse cx="164" cy="57" rx="3" ry="3" fill="rgb(0, 0, 0)" stroke="rgb(0, 0, 0)" pointer-events="all"/><ellipse cx="214" cy="20" rx="3" ry="3" fill="rgb(0, 0, 0)" stroke="rgb(0, 0, 0)" pointer-events="all"/><path d="M 207.98 338.74 L 254.02 286.26" fill="none" stroke="rgb(0, 0, 0)" stroke-miterlimit="10" pointer-events="stroke"/><ellipse cx="206" cy="341" rx="3" ry="3" fill="rgb(0, 0, 0)" stroke="rgb(0, 0, 0)" pointer-events="all"/><ellipse cx="256" cy="284" rx="3" ry="3" fill="rgb(0, 0, 0)" stroke="rgb(0, 0, 0)" pointer-events="all"/><path d="M 482.19 158.04 L 460.81 165.96" fill="none" stroke="rgb(0, 0, 0)" stroke-miterlimit="10" pointer-events="stroke"/><ellipse cx="485" cy="157" rx="3" ry="3" fill="rgb(0, 0, 0)" stroke="rgb(0, 0, 0)" pointer-events="all"/><ellipse cx="458" cy="167" rx="3" ry="3" fill="rgb(0, 0, 0)" stroke="rgb(0, 0, 0)" pointer-events="all"/><path d="M 487.18 159.06 L 518.82 188.94" fill="none" stroke="rgb(0, 0, 0)" stroke-miterlimit="10" pointer-events="stroke"/><ellipse cx="485" cy="157" rx="3" ry="3" fill="rgb(0, 0, 0)" stroke="rgb(0, 0, 0)" pointer-events="all"/><ellipse cx="521" cy="191" rx="3" ry="3" fill="rgb(0, 0, 0)" stroke="rgb(0, 0, 0)" pointer-events="all"/><path d="M 474.08 239.84 L 518.92 193.16" fill="none" stroke="rgb(0, 0, 0)" stroke-miterlimit="10" pointer-events="stroke"/><ellipse cx="472" cy="242" rx="3" ry="3" fill="rgb(0, 0, 0)" stroke="rgb(0, 0, 0)" pointer-events="all"/><ellipse cx="521" cy="191" rx="3" ry="3" fill="rgb(0, 0, 0)" stroke="rgb(0, 0, 0)" pointer-events="all"/><path d="M 425.08 290.84 L 469.92 244.16" fill="none" stroke="rgb(0, 0, 0)" stroke-miterlimit="10" pointer-events="stroke"/><ellipse cx="423" cy="293" rx="3" ry="3" fill="rgb(0, 0, 0)" stroke="rgb(0, 0, 0)" pointer-events="all"/><ellipse cx="472" cy="242" rx="3" ry="3" fill="rgb(0, 0, 0)" stroke="rgb(0, 0, 0)" pointer-events="all"/><path d="M 389.18 261.06 L 420.82 290.94" fill="none" stroke="rgb(0, 0, 0)" stroke-miterlimit="10" pointer-events="stroke"/><ellipse cx="387" cy="259" rx="3" ry="3" fill="rgb(0, 0, 0)" stroke="rgb(0, 0, 0)" pointer-events="all"/><ellipse cx="423" cy="293" rx="3" ry="3" fill="rgb(0, 0, 0)" stroke="rgb(0, 0, 0)" pointer-events="all"/><path d="M 158 394.76 L 204 343.24" fill="none" stroke="rgb(0, 0, 0)" stroke-miterlimit="10" pointer-events="stroke"/><ellipse cx="156" cy="397" rx="3" ry="3" fill="rgb(0, 0, 0)" stroke="rgb(0, 0, 0)" pointer-events="all"/><ellipse cx="206" cy="341" rx="3" ry="3" fill="rgb(0, 0, 0)" stroke="rgb(0, 0, 0)" pointer-events="all"/><path d="M 104.1 449.86 L 153.9 399.14" fill="none" stroke="rgb(0, 0, 0)" stroke-miterlimit="10" pointer-events="stroke"/><ellipse cx="102" cy="452" rx="3" ry="3" fill="rgb(0, 0, 0)" stroke="rgb(0, 0, 0)" pointer-events="all"/><ellipse cx="156" cy="397" rx="3" ry="3" fill="rgb(0, 0, 0)" stroke="rgb(0, 0, 0)" pointer-events="all"/><path d="M 24.21 446.11 L 8.79 389.89" fill="none" stroke="rgb(0, 0, 0)" stroke-miterlimit="10" pointer-events="stroke"/><ellipse cx="25" cy="449" rx="3" ry="3" fill="rgb(0, 0, 0)" stroke="rgb(0, 0, 0)" pointer-events="all"/><ellipse cx="8" cy="387" rx="3" ry="3" fill="rgb(0, 0, 0)" stroke="rgb(0, 0, 0)" pointer-events="all"/><path d="M 79 397 L 153 397" fill="none" stroke="rgb(0, 0, 0)" stroke-miterlimit="10" pointer-events="stroke"/><ellipse cx="76" cy="397" rx="3" ry="3" fill="rgb(0, 0, 0)" stroke="rgb(0, 0, 0)" pointer-events="all"/><ellipse cx="156" cy="397" rx="3" ry="3" fill="rgb(0, 0, 0)" stroke="rgb(0, 0, 0)" pointer-events="all"/><path d="M 89.19 323.05 L 54.81 335.95" fill="none" stroke="rgb(0, 0, 0)" stroke-miterlimit="10" pointer-events="stroke"/><ellipse cx="92" cy="322" rx="3" ry="3" fill="rgb(0, 0, 0)" stroke="rgb(0, 0, 0)" pointer-events="all"/><ellipse cx="52" cy="337" rx="3" ry="3" fill="rgb(0, 0, 0)" stroke="rgb(0, 0, 0)" pointer-events="all"/><path d="M 73.03 396.56 L 10.97 387.44" fill="none" stroke="rgb(0, 0, 0)" stroke-miterlimit="10" pointer-events="stroke"/><ellipse cx="76" cy="397" rx="3" ry="3" fill="rgb(0, 0, 0)" stroke="rgb(0, 0, 0)" pointer-events="all"/><ellipse cx="8" cy="387" rx="3" ry="3" fill="rgb(0, 0, 0)" stroke="rgb(0, 0, 0)" pointer-events="all"/><path d="M 76.63 394.07 L 91.37 324.93" fill="none" stroke="rgb(0, 0, 0)" stroke-miterlimit="10" pointer-events="stroke"/><ellipse cx="76" cy="397" rx="3" ry="3" fill="rgb(0, 0, 0)" stroke="rgb(0, 0, 0)" pointer-events="all"/><ellipse cx="92" cy="322" rx="3" ry="3" fill="rgb(0, 0, 0)" stroke="rgb(0, 0, 0)" pointer-events="all"/><path d="M 27.1 446.86 L 73.9 399.14" fill="none" stroke="rgb(0, 0, 0)" stroke-miterlimit="10" pointer-events="stroke"/><ellipse cx="25" cy="449" rx="3" ry="3" fill="rgb(0, 0, 0)" stroke="rgb(0, 0, 0)" pointer-events="all"/><ellipse cx="76" cy="397" rx="3" ry="3" fill="rgb(0, 0, 0)" stroke="rgb(0, 0, 0)" pointer-events="all"/><path d="M 102.95 292.81 L 93.05 319.19" fill="none" stroke="rgb(0, 0, 0)" stroke-miterlimit="10" pointer-events="stroke"/><ellipse cx="104" cy="290" rx="3" ry="3" fill="rgb(0, 0, 0)" stroke="rgb(0, 0, 0)" pointer-events="all"/><ellipse cx="92" cy="322" rx="3" ry="3" fill="rgb(0, 0, 0)" stroke="rgb(0, 0, 0)" pointer-events="all"/><path d="M 114.84 376.24 L 93.16 324.76" fill="none" stroke="rgb(0, 0, 0)" stroke-miterlimit="10" pointer-events="stroke"/><ellipse cx="116" cy="379" rx="3" ry="3" fill="rgb(0, 0, 0)" stroke="rgb(0, 0, 0)" pointer-events="all"/><ellipse cx="92" cy="322" rx="3" ry="3" fill="rgb(0, 0, 0)" stroke="rgb(0, 0, 0)" pointer-events="all"/><path d="M 153.26 395.77 L 118.74 380.23" fill="none" stroke="rgb(0, 0, 0)" stroke-miterlimit="10" pointer-events="stroke"/><ellipse cx="156" cy="397" rx="3" ry="3" fill="rgb(0, 0, 0)" stroke="rgb(0, 0, 0)" pointer-events="all"/><ellipse cx="116" cy="379" rx="3" ry="3" fill="rgb(0, 0, 0)" stroke="rgb(0, 0, 0)" pointer-events="all"/><path d="M 78.74 395.77 L 113.26 380.23" fill="none" stroke="rgb(0, 0, 0)" stroke-miterlimit="10" pointer-events="stroke"/><ellipse cx="76" cy="397" rx="3" ry="3" fill="rgb(0, 0, 0)" stroke="rgb(0, 0, 0)" pointer-events="all"/><ellipse cx="116" cy="379" rx="3" ry="3" fill="rgb(0, 0, 0)" stroke="rgb(0, 0, 0)" pointer-events="all"/><path d="M 117.71 376.54 L 164.29 309.46" fill="none" stroke="rgb(0, 0, 0)" stroke-miterlimit="10" pointer-events="stroke"/><ellipse cx="116" cy="379" rx="3" ry="3" fill="rgb(0, 0, 0)" stroke="rgb(0, 0, 0)" pointer-events="all"/><ellipse cx="166" cy="307" rx="3" ry="3" fill="rgb(0, 0, 0)" stroke="rgb(0, 0, 0)" pointer-events="all"/><path d="M 165.64 304.02 L 158.36 243.98" fill="none" stroke="rgb(0, 0, 0)" stroke-miterlimit="10" pointer-events="stroke"/><ellipse cx="166" cy="307" rx="3" ry="3" fill="rgb(0, 0, 0)" stroke="rgb(0, 0, 0)" pointer-events="all"/><ellipse cx="158" cy="241" rx="3" ry="3" fill="rgb(0, 0, 0)" stroke="rgb(0, 0, 0)" pointer-events="all"/><path d="M 221 304.15 L 169 306.85" fill="none" stroke="rgb(0, 0, 0)" stroke-miterlimit="10" pointer-events="stroke"/><ellipse cx="224" cy="304" rx="3" ry="3" fill="rgb(0, 0, 0)" stroke="rgb(0, 0, 0)" pointer-events="all"/><ellipse cx="166" cy="307" rx="3" ry="3" fill="rgb(0, 0, 0)" stroke="rgb(0, 0, 0)" pointer-events="all"/><path d="M 253.46 285.59 L 226.54 302.41" fill="none" stroke="rgb(0, 0, 0)" stroke-miterlimit="10" pointer-events="stroke"/><ellipse cx="256" cy="284" rx="3" ry="3" fill="rgb(0, 0, 0)" stroke="rgb(0, 0, 0)" pointer-events="all"/><ellipse cx="224" cy="304" rx="3" ry="3" fill="rgb(0, 0, 0)" stroke="rgb(0, 0, 0)" pointer-events="all"/><path d="M 222.69 306.7 L 207.31 338.3" fill="none" stroke="rgb(0, 0, 0)" stroke-miterlimit="10" pointer-events="stroke"/><ellipse cx="224" cy="304" rx="3" ry="3" fill="rgb(0, 0, 0)" stroke="rgb(0, 0, 0)" pointer-events="all"/><ellipse cx="206" cy="341" rx="3" ry="3" fill="rgb(0, 0, 0)" stroke="rgb(0, 0, 0)" pointer-events="all"/><path d="M 168.29 308.94 L 203.71 339.06" fill="none" stroke="rgb(0, 0, 0)" stroke-miterlimit="10" pointer-events="stroke"/><ellipse cx="166" cy="307" rx="3" ry="3" fill="rgb(0, 0, 0)" stroke="rgb(0, 0, 0)" pointer-events="all"/><ellipse cx="206" cy="341" rx="3" ry="3" fill="rgb(0, 0, 0)" stroke="rgb(0, 0, 0)" pointer-events="all"/><path d="M 94.94 321.4 L 163.06 307.6" fill="none" stroke="rgb(0, 0, 0)" stroke-miterlimit="10" pointer-events="stroke"/><ellipse cx="92" cy="322" rx="3" ry="3" fill="rgb(0, 0, 0)" stroke="rgb(0, 0, 0)" pointer-events="all"/><ellipse cx="166" cy="307" rx="3" ry="3" fill="rgb(0, 0, 0)" stroke="rgb(0, 0, 0)" pointer-events="all"/><path d="M 163.11 306.19 L 107.89 290.81" fill="none" stroke="rgb(0, 0, 0)" stroke-miterlimit="10" pointer-events="stroke"/><ellipse cx="166" cy="307" rx="3" ry="3" fill="rgb(0, 0, 0)" stroke="rgb(0, 0, 0)" pointer-events="all"/><ellipse cx="105" cy="290" rx="3" ry="3" fill="rgb(0, 0, 0)" stroke="rgb(0, 0, 0)" pointer-events="all"/><path d="M 200.63 274.16 L 160.37 242.84" fill="none" stroke="rgb(0, 0, 0)" stroke-miterlimit="10" pointer-events="stroke"/><ellipse cx="203" cy="276" rx="3" ry="3" fill="rgb(0, 0, 0)" stroke="rgb(0, 0, 0)" pointer-events="all"/><ellipse cx="158" cy="241" rx="3" ry="3" fill="rgb(0, 0, 0)" stroke="rgb(0, 0, 0)" pointer-events="all"/><path d="M 255.87 281 L 253.13 219" fill="none" stroke="rgb(0, 0, 0)" stroke-miterlimit="10" pointer-events="stroke"/><ellipse cx="256" cy="284" rx="3" ry="3" fill="rgb(0, 0, 0)" stroke="rgb(0, 0, 0)" pointer-events="all"/><ellipse cx="253" cy="216" rx="3" ry="3" fill="rgb(0, 0, 0)" stroke="rgb(0, 0, 0)" pointer-events="all"/><path d="M 203.32 273.02 L 211.68 195.98" fill="none" stroke="rgb(0, 0, 0)" stroke-miterlimit="10" pointer-events="stroke"/><ellipse cx="203" cy="276" rx="3" ry="3" fill="rgb(0, 0, 0)" stroke="rgb(0, 0, 0)" pointer-events="all"/><ellipse cx="212" cy="193" rx="3" ry="3" fill="rgb(0, 0, 0)" stroke="rgb(0, 0, 0)" pointer-events="all"/><path d="M 205.97 276.45 L 253.03 283.55" fill="none" stroke="rgb(0, 0, 0)" stroke-miterlimit="10" pointer-events="stroke"/><ellipse cx="203" cy="276" rx="3" ry="3" fill="rgb(0, 0, 0)" stroke="rgb(0, 0, 0)" pointer-events="all"/><ellipse cx="256" cy="284" rx="3" ry="3" fill="rgb(0, 0, 0)" stroke="rgb(0, 0, 0)" pointer-events="all"/><path d="M 416.49 260.04 L 419.51 241.96" fill="none" stroke="rgb(0, 0, 0)" stroke-miterlimit="10" pointer-events="stroke"/><ellipse cx="416" cy="263" rx="3" ry="3" fill="rgb(0, 0, 0)" stroke="rgb(0, 0, 0)" pointer-events="all"/><ellipse cx="420" cy="239" rx="3" ry="3" fill="rgb(0, 0, 0)" stroke="rgb(0, 0, 0)" pointer-events="all"/><path d="M 450.77 213.26 L 444.23 198.74" fill="none" stroke="rgb(0, 0, 0)" stroke-miterlimit="10" pointer-events="stroke"/><ellipse cx="452" cy="216" rx="3" ry="3" fill="rgb(0, 0, 0)" stroke="rgb(0, 0, 0)" pointer-events="all"/><ellipse cx="443" cy="196" rx="3" ry="3" fill="rgb(0, 0, 0)" stroke="rgb(0, 0, 0)" pointer-events="all"/><path d="M 222.2 301.6 L 204.8 278.4" fill="none" stroke="rgb(0, 0, 0)" stroke-miterlimit="10" pointer-events="stroke"/><ellipse cx="224" cy="304" rx="3" ry="3" fill="rgb(0, 0, 0)" stroke="rgb(0, 0, 0)" pointer-events="all"/><ellipse cx="203" cy="276" rx="3" ry="3" fill="rgb(0, 0, 0)" stroke="rgb(0, 0, 0)" pointer-events="all"/><path d="M 449 216 L 432 216" fill="none" stroke="rgb(0, 0, 0)" stroke-miterlimit="10" pointer-events="stroke"/><ellipse cx="452" cy="216" rx="3" ry="3" fill="rgb(0, 0, 0)" stroke="rgb(0, 0, 0)" pointer-events="all"/><ellipse cx="429" cy="216" rx="3" ry="3" fill="rgb(0, 0, 0)" stroke="rgb(0, 0, 0)" pointer-events="all"/><path d="M 470.17 239.62 L 453.83 218.38" fill="none" stroke="rgb(0, 0, 0)" stroke-miterlimit="10" pointer-events="stroke"/><ellipse cx="472" cy="242" rx="3" ry="3" fill="rgb(0, 0, 0)" stroke="rgb(0, 0, 0)" pointer-events="all"/><ellipse cx="452" cy="216" rx="3" ry="3" fill="rgb(0, 0, 0)" stroke="rgb(0, 0, 0)" pointer-events="all"/><path d="M 430.72 213.54 L 441.28 198.46" fill="none" stroke="rgb(0, 0, 0)" stroke-miterlimit="10" pointer-events="stroke"/><ellipse cx="429" cy="216" rx="3" ry="3" fill="rgb(0, 0, 0)" stroke="rgb(0, 0, 0)" pointer-events="all"/><ellipse cx="443" cy="196" rx="3" ry="3" fill="rgb(0, 0, 0)" stroke="rgb(0, 0, 0)" pointer-events="all"/><path d="M 433.15 258.88 L 423.85 290.12" fill="none" stroke="rgb(0, 0, 0)" stroke-miterlimit="10" pointer-events="stroke"/><ellipse cx="434" cy="256" rx="3" ry="3" fill="rgb(0, 0, 0)" stroke="rgb(0, 0, 0)" pointer-events="all"/><ellipse cx="423" cy="293" rx="3" ry="3" fill="rgb(0, 0, 0)" stroke="rgb(0, 0, 0)" pointer-events="all"/><path d="M 426.9 218.15 L 389.1 256.85" fill="none" stroke="rgb(0, 0, 0)" stroke-miterlimit="10" pointer-events="stroke"/><ellipse cx="429" cy="216" rx="3" ry="3" fill="rgb(0, 0, 0)" stroke="rgb(0, 0, 0)" pointer-events="all"/><ellipse cx="387" cy="259" rx="3" ry="3" fill="rgb(0, 0, 0)" stroke="rgb(0, 0, 0)" pointer-events="all"/><path d="M 469.18 243.04 L 436.82 254.96" fill="none" stroke="rgb(0, 0, 0)" stroke-miterlimit="10" pointer-events="stroke"/><ellipse cx="472" cy="242" rx="3" ry="3" fill="rgb(0, 0, 0)" stroke="rgb(0, 0, 0)" pointer-events="all"/><ellipse cx="434" cy="256" rx="3" ry="3" fill="rgb(0, 0, 0)" stroke="rgb(0, 0, 0)" pointer-events="all"/><path d="M 417.43 240.55 L 389.57 257.45" fill="none" stroke="rgb(0, 0, 0)" stroke-miterlimit="10" pointer-events="stroke"/><ellipse cx="420" cy="239" rx="3" ry="3" fill="rgb(0, 0, 0)" stroke="rgb(0, 0, 0)" pointer-events="all"/><ellipse cx="387" cy="259" rx="3" ry="3" fill="rgb(0, 0, 0)" stroke="rgb(0, 0, 0)" pointer-events="all"/><path d="M 469.43 240.45 L 431.57 217.55" fill="none" stroke="rgb(0, 0, 0)" stroke-miterlimit="10" pointer-events="stroke"/><ellipse cx="472" cy="242" rx="3" ry="3" fill="rgb(0, 0, 0)" stroke="rgb(0, 0, 0)" pointer-events="all"/><ellipse cx="429" cy="216" rx="3" ry="3" fill="rgb(0, 0, 0)" stroke="rgb(0, 0, 0)" pointer-events="all"/><path d="M 483.23 180.01 L 484.77 159.99" fill="none" stroke="rgb(0, 0, 0)" stroke-miterlimit="10" pointer-events="stroke"/><ellipse cx="483" cy="183" rx="3" ry="3" fill="rgb(0, 0, 0)" stroke="rgb(0, 0, 0)" pointer-events="all"/><ellipse cx="485" cy="157" rx="3" ry="3" fill="rgb(0, 0, 0)" stroke="rgb(0, 0, 0)" pointer-events="all"/><path d="M 452.36 213.02 L 457.64 169.98" fill="none" stroke="rgb(0, 0, 0)" stroke-miterlimit="10" pointer-events="stroke"/><ellipse cx="452" cy="216" rx="3" ry="3" fill="rgb(0, 0, 0)" stroke="rgb(0, 0, 0)" pointer-events="all"/><ellipse cx="458" cy="167" rx="3" ry="3" fill="rgb(0, 0, 0)" stroke="rgb(0, 0, 0)" pointer-events="all"/><path d="M 444.38 193.34 L 456.62 169.66" fill="none" stroke="rgb(0, 0, 0)" stroke-miterlimit="10" pointer-events="stroke"/><ellipse cx="443" cy="196" rx="3" ry="3" fill="rgb(0, 0, 0)" stroke="rgb(0, 0, 0)" pointer-events="all"/><ellipse cx="458" cy="167" rx="3" ry="3" fill="rgb(0, 0, 0)" stroke="rgb(0, 0, 0)" pointer-events="all"/><path d="M 485.94 183.62 L 518.06 190.38" fill="none" stroke="rgb(0, 0, 0)" stroke-miterlimit="10" pointer-events="stroke"/><ellipse cx="483" cy="183" rx="3" ry="3" fill="rgb(0, 0, 0)" stroke="rgb(0, 0, 0)" pointer-events="all"/><ellipse cx="521" cy="191" rx="3" ry="3" fill="rgb(0, 0, 0)" stroke="rgb(0, 0, 0)" pointer-events="all"/><path d="M 460.53 168.62 L 480.47 181.38" fill="none" stroke="rgb(0, 0, 0)" stroke-miterlimit="10" pointer-events="stroke"/><ellipse cx="458" cy="167" rx="3" ry="3" fill="rgb(0, 0, 0)" stroke="rgb(0, 0, 0)" pointer-events="all"/><ellipse cx="483" cy="183" rx="3" ry="3" fill="rgb(0, 0, 0)" stroke="rgb(0, 0, 0)" pointer-events="all"/><path d="M 454.82 214.98 L 518.18 192.02" fill="none" stroke="rgb(0, 0, 0)" stroke-miterlimit="10" pointer-events="stroke"/><ellipse cx="452" cy="216" rx="3" ry="3" fill="rgb(0, 0, 0)" stroke="rgb(0, 0, 0)" pointer-events="all"/><ellipse cx="521" cy="191" rx="3" ry="3" fill="rgb(0, 0, 0)" stroke="rgb(0, 0, 0)" pointer-events="all"/><path d="M 454.05 213.81 L 480.95 185.19" fill="none" stroke="rgb(0, 0, 0)" stroke-miterlimit="10" pointer-events="stroke"/><ellipse cx="452" cy="216" rx="3" ry="3" fill="rgb(0, 0, 0)" stroke="rgb(0, 0, 0)" pointer-events="all"/><ellipse cx="483" cy="183" rx="3" ry="3" fill="rgb(0, 0, 0)" stroke="rgb(0, 0, 0)" pointer-events="all"/><path d="M 416.68 265.92 L 422.32 290.08" fill="none" stroke="rgb(0, 0, 0)" stroke-miterlimit="10" pointer-events="stroke"/><ellipse cx="416" cy="263" rx="3" ry="3" fill="rgb(0, 0, 0)" stroke="rgb(0, 0, 0)" pointer-events="all"/><ellipse cx="423" cy="293" rx="3" ry="3" fill="rgb(0, 0, 0)" stroke="rgb(0, 0, 0)" pointer-events="all"/><path d="M 432.09 253.68 L 421.91 241.32" fill="none" stroke="rgb(0, 0, 0)" stroke-miterlimit="10" pointer-events="stroke"/><ellipse cx="434" cy="256" rx="3" ry="3" fill="rgb(0, 0, 0)" stroke="rgb(0, 0, 0)" pointer-events="all"/><ellipse cx="420" cy="239" rx="3" ry="3" fill="rgb(0, 0, 0)" stroke="rgb(0, 0, 0)" pointer-events="all"/><path d="M 389.97 259.41 L 413.03 262.59" fill="none" stroke="rgb(0, 0, 0)" stroke-miterlimit="10" pointer-events="stroke"/><ellipse cx="387" cy="259" rx="3" ry="3" fill="rgb(0, 0, 0)" stroke="rgb(0, 0, 0)" pointer-events="all"/><ellipse cx="416" cy="263" rx="3" ry="3" fill="rgb(0, 0, 0)" stroke="rgb(0, 0, 0)" pointer-events="all"/><path d="M 429.37 218.98 L 433.63 253.02" fill="none" stroke="rgb(0, 0, 0)" stroke-miterlimit="10" pointer-events="stroke"/><ellipse cx="429" cy="216" rx="3" ry="3" fill="rgb(0, 0, 0)" stroke="rgb(0, 0, 0)" pointer-events="all"/><ellipse cx="434" cy="256" rx="3" ry="3" fill="rgb(0, 0, 0)" stroke="rgb(0, 0, 0)" pointer-events="all"/><path d="M 421.09 236.21 L 427.91 218.79" fill="none" stroke="rgb(0, 0, 0)" stroke-miterlimit="10" pointer-events="stroke"/><ellipse cx="420" cy="239" rx="3" ry="3" fill="rgb(0, 0, 0)" stroke="rgb(0, 0, 0)" pointer-events="all"/><ellipse cx="429" cy="216" rx="3" ry="3" fill="rgb(0, 0, 0)" stroke="rgb(0, 0, 0)" pointer-events="all"/><path d="M 441.13 153 L 442.87 193" fill="none" stroke="rgb(0, 0, 0)" stroke-miterlimit="10" pointer-events="stroke"/><ellipse cx="441" cy="150" rx="3" ry="3" fill="rgb(0, 0, 0)" stroke="rgb(0, 0, 0)" pointer-events="all"/><ellipse cx="443" cy="196" rx="3" ry="3" fill="rgb(0, 0, 0)" stroke="rgb(0, 0, 0)" pointer-events="all"/><path d="M 324.98 210.75 L 358.02 173.25" fill="none" stroke="rgb(0, 0, 0)" stroke-miterlimit="10" pointer-events="stroke"/><ellipse cx="323" cy="213" rx="3" ry="3" fill="rgb(0, 0, 0)" stroke="rgb(0, 0, 0)" pointer-events="all"/><ellipse cx="360" cy="171" rx="3" ry="3" fill="rgb(0, 0, 0)" stroke="rgb(0, 0, 0)" pointer-events="all"/><path d="M 372.25 218.1 L 360.75 173.9" fill="none" stroke="rgb(0, 0, 0)" stroke-miterlimit="10" pointer-events="stroke"/><ellipse cx="373" cy="221" rx="3" ry="3" fill="rgb(0, 0, 0)" stroke="rgb(0, 0, 0)" pointer-events="all"/><ellipse cx="360" cy="171" rx="3" ry="3" fill="rgb(0, 0, 0)" stroke="rgb(0, 0, 0)" pointer-events="all"/><path d="M 373.91 218.14 L 396.09 148.86" fill="none" stroke="rgb(0, 0, 0)" stroke-miterlimit="10" pointer-events="stroke"/><ellipse cx="373" cy="221" rx="3" ry="3" fill="rgb(0, 0, 0)" stroke="rgb(0, 0, 0)" pointer-events="all"/><ellipse cx="397" cy="146" rx="3" ry="3" fill="rgb(0, 0, 0)" stroke="rgb(0, 0, 0)" pointer-events="all"/><path d="M 399.03 148.21 L 440.97 193.79" fill="none" stroke="rgb(0, 0, 0)" stroke-miterlimit="10" pointer-events="stroke"/><ellipse cx="397" cy="146" rx="3" ry="3" fill="rgb(0, 0, 0)" stroke="rgb(0, 0, 0)" pointer-events="all"/><ellipse cx="443" cy="196" rx="3" ry="3" fill="rgb(0, 0, 0)" stroke="rgb(0, 0, 0)" pointer-events="all"/><path d="M 399.99 146.27 L 438.01 149.73" fill="none" stroke="rgb(0, 0, 0)" stroke-miterlimit="10" pointer-events="stroke"/><ellipse cx="397" cy="146" rx="3" ry="3" fill="rgb(0, 0, 0)" stroke="rgb(0, 0, 0)" pointer-events="all"/><ellipse cx="441" cy="150" rx="3" ry="3" fill="rgb(0, 0, 0)" stroke="rgb(0, 0, 0)" pointer-events="all"/><path d="M 362.49 169.32 L 394.51 147.68" fill="none" stroke="rgb(0, 0, 0)" stroke-miterlimit="10" pointer-events="stroke"/><ellipse cx="360" cy="171" rx="3" ry="3" fill="rgb(0, 0, 0)" stroke="rgb(0, 0, 0)" pointer-events="all"/><ellipse cx="397" cy="146" rx="3" ry="3" fill="rgb(0, 0, 0)" stroke="rgb(0, 0, 0)" pointer-events="all"/><path d="M 375.99 220.73 L 426.01 216.27" fill="none" stroke="rgb(0, 0, 0)" stroke-miterlimit="10" pointer-events="stroke"/><ellipse cx="373" cy="221" rx="3" ry="3" fill="rgb(0, 0, 0)" stroke="rgb(0, 0, 0)" pointer-events="all"/><ellipse cx="429" cy="216" rx="3" ry="3" fill="rgb(0, 0, 0)" stroke="rgb(0, 0, 0)" pointer-events="all"/><path d="M 394.58 236.47 L 426.42 217.53" fill="none" stroke="rgb(0, 0, 0)" stroke-miterlimit="10" pointer-events="stroke"/><ellipse cx="392" cy="238" rx="3" ry="3" fill="rgb(0, 0, 0)" stroke="rgb(0, 0, 0)" pointer-events="all"/><ellipse cx="429" cy="216" rx="3" ry="3" fill="rgb(0, 0, 0)" stroke="rgb(0, 0, 0)" pointer-events="all"/><path d="M 166.9 56.25 L 242.1 36.75" fill="none" stroke="rgb(0, 0, 0)" stroke-miterlimit="10" pointer-events="stroke"/><ellipse cx="164" cy="57" rx="3" ry="3" fill="rgb(0, 0, 0)" stroke="rgb(0, 0, 0)" pointer-events="all"/><ellipse cx="245" cy="36" rx="3" ry="3" fill="rgb(0, 0, 0)" stroke="rgb(0, 0, 0)" pointer-events="all"/><path d="M 210.85 79.64 L 243.15 38.36" fill="none" stroke="rgb(0, 0, 0)" stroke-miterlimit="10" pointer-events="stroke"/><ellipse cx="209" cy="82" rx="3" ry="3" fill="rgb(0, 0, 0)" stroke="rgb(0, 0, 0)" pointer-events="all"/><ellipse cx="245" cy="36" rx="3" ry="3" fill="rgb(0, 0, 0)" stroke="rgb(0, 0, 0)" pointer-events="all"/><path d="M 216.67 21.38 L 242.33 34.62" fill="none" stroke="rgb(0, 0, 0)" stroke-miterlimit="10" pointer-events="stroke"/><ellipse cx="214" cy="20" rx="3" ry="3" fill="rgb(0, 0, 0)" stroke="rgb(0, 0, 0)" pointer-events="all"/><ellipse cx="245" cy="36" rx="3" ry="3" fill="rgb(0, 0, 0)" stroke="rgb(0, 0, 0)" pointer-events="all"/><path d="M 397.48 143.04 L 407.52 80.96" fill="none" stroke="rgb(0, 0, 0)" stroke-miterlimit="10" pointer-events="stroke"/><ellipse cx="397" cy="146" rx="3" ry="3" fill="rgb(0, 0, 0)" stroke="rgb(0, 0, 0)" pointer-events="all"/><ellipse cx="408" cy="78" rx="3" ry="3" fill="rgb(0, 0, 0)" stroke="rgb(0, 0, 0)" pointer-events="all"/><path d="M 322.73 210.01 L 315.27 128.99" fill="none" stroke="rgb(0, 0, 0)" stroke-miterlimit="10" pointer-events="stroke"/><ellipse cx="323" cy="213" rx="3" ry="3" fill="rgb(0, 0, 0)" stroke="rgb(0, 0, 0)" pointer-events="all"/><ellipse cx="315" cy="126" rx="3" ry="3" fill="rgb(0, 0, 0)" stroke="rgb(0, 0, 0)" pointer-events="all"/><path d="M 357.88 168.88 L 317.12 128.12" fill="none" stroke="rgb(0, 0, 0)" stroke-miterlimit="10" pointer-events="stroke"/><ellipse cx="360" cy="171" rx="3" ry="3" fill="rgb(0, 0, 0)" stroke="rgb(0, 0, 0)" pointer-events="all"/><ellipse cx="315" cy="126" rx="3" ry="3" fill="rgb(0, 0, 0)" stroke="rgb(0, 0, 0)" pointer-events="all"/><path d="M 320.7 211.07 L 245.3 147.93" fill="none" stroke="rgb(0, 0, 0)" stroke-miterlimit="10" pointer-events="stroke"/><ellipse cx="323" cy="213" rx="3" ry="3" fill="rgb(0, 0, 0)" stroke="rgb(0, 0, 0)" pointer-events="all"/><ellipse cx="243" cy="146" rx="3" ry="3" fill="rgb(0, 0, 0)" stroke="rgb(0, 0, 0)" pointer-events="all"/><path d="M 245.89 145.2 L 312.11 126.8" fill="none" stroke="rgb(0, 0, 0)" stroke-miterlimit="10" pointer-events="stroke"/><ellipse cx="243" cy="146" rx="3" ry="3" fill="rgb(0, 0, 0)" stroke="rgb(0, 0, 0)" pointer-events="all"/><ellipse cx="315" cy="126" rx="3" ry="3" fill="rgb(0, 0, 0)" stroke="rgb(0, 0, 0)" pointer-events="all"/><path d="M 243.42 148.97 L 252.58 213.03" fill="none" stroke="rgb(0, 0, 0)" stroke-miterlimit="10" pointer-events="stroke"/><ellipse cx="243" cy="146" rx="3" ry="3" fill="rgb(0, 0, 0)" stroke="rgb(0, 0, 0)" pointer-events="all"/><ellipse cx="253" cy="216" rx="3" ry="3" fill="rgb(0, 0, 0)" stroke="rgb(0, 0, 0)" pointer-events="all"/><path d="M 256 215.87 L 320 213.13" fill="none" stroke="rgb(0, 0, 0)" stroke-miterlimit="10" pointer-events="stroke"/><ellipse cx="253" cy="216" rx="3" ry="3" fill="rgb(0, 0, 0)" stroke="rgb(0, 0, 0)" pointer-events="all"/><ellipse cx="323" cy="213" rx="3" ry="3" fill="rgb(0, 0, 0)" stroke="rgb(0, 0, 0)" pointer-events="all"/><path d="M 255.25 217.98 L 284.75 244.02" fill="none" stroke="rgb(0, 0, 0)" stroke-miterlimit="10" pointer-events="stroke"/><ellipse cx="253" cy="216" rx="3" ry="3" fill="rgb(0, 0, 0)" stroke="rgb(0, 0, 0)" pointer-events="all"/><ellipse cx="287" cy="246" rx="3" ry="3" fill="rgb(0, 0, 0)" stroke="rgb(0, 0, 0)" pointer-events="all"/><path d="M 255.5 64.34 L 295.5 37.66" fill="none" stroke="rgb(0, 0, 0)" stroke-miterlimit="10" pointer-events="stroke"/><ellipse cx="253" cy="66" rx="3" ry="3" fill="rgb(0, 0, 0)" stroke="rgb(0, 0, 0)" pointer-events="all"/><ellipse cx="298" cy="36" rx="3" ry="3" fill="rgb(0, 0, 0)" stroke="rgb(0, 0, 0)" pointer-events="all"/><path d="M 211.82 80.97 L 250.18 67.03" fill="none" stroke="rgb(0, 0, 0)" stroke-miterlimit="10" pointer-events="stroke"/><ellipse cx="209" cy="82" rx="3" ry="3" fill="rgb(0, 0, 0)" stroke="rgb(0, 0, 0)" pointer-events="all"/><ellipse cx="253" cy="66" rx="3" ry="3" fill="rgb(0, 0, 0)" stroke="rgb(0, 0, 0)" pointer-events="all"/><path d="M 249.33 99.02 L 252.67 68.98" fill="none" stroke="rgb(0, 0, 0)" stroke-miterlimit="10" pointer-events="stroke"/><ellipse cx="249" cy="102" rx="3" ry="3" fill="rgb(0, 0, 0)" stroke="rgb(0, 0, 0)" pointer-events="all"/><ellipse cx="253" cy="66" rx="3" ry="3" fill="rgb(0, 0, 0)" stroke="rgb(0, 0, 0)" pointer-events="all"/><path d="M 248 36 L 295 36" fill="none" stroke="rgb(0, 0, 0)" stroke-miterlimit="10" pointer-events="stroke"/><ellipse cx="245" cy="36" rx="3" ry="3" fill="rgb(0, 0, 0)" stroke="rgb(0, 0, 0)" pointer-events="all"/><ellipse cx="298" cy="36" rx="3" ry="3" fill="rgb(0, 0, 0)" stroke="rgb(0, 0, 0)" pointer-events="all"/><path d="M 247.62 34.53 L 292.38 9.47" fill="none" stroke="rgb(0, 0, 0)" stroke-miterlimit="10" pointer-events="stroke"/><ellipse cx="245" cy="36" rx="3" ry="3" fill="rgb(0, 0, 0)" stroke="rgb(0, 0, 0)" pointer-events="all"/><ellipse cx="295" cy="8" rx="3" ry="3" fill="rgb(0, 0, 0)" stroke="rgb(0, 0, 0)" pointer-events="all"/><path d="M 297.68 33.02 L 295.32 10.98" fill="none" stroke="rgb(0, 0, 0)" stroke-miterlimit="10" pointer-events="stroke"/><ellipse cx="298" cy="36" rx="3" ry="3" fill="rgb(0, 0, 0)" stroke="rgb(0, 0, 0)" pointer-events="all"/><ellipse cx="295" cy="8" rx="3" ry="3" fill="rgb(0, 0, 0)" stroke="rgb(0, 0, 0)" pointer-events="all"/><path d="M 252.23 63.1 L 245.77 38.9" fill="none" stroke="rgb(0, 0, 0)" stroke-miterlimit="10" pointer-events="stroke"/><ellipse cx="253" cy="66" rx="3" ry="3" fill="rgb(0, 0, 0)" stroke="rgb(0, 0, 0)" pointer-events="all"/><ellipse cx="245" cy="36" rx="3" ry="3" fill="rgb(0, 0, 0)" stroke="rgb(0, 0, 0)" pointer-events="all"/><path d="M 250.79 99.59 L 296.21 38.41" fill="none" stroke="rgb(0, 0, 0)" stroke-miterlimit="10" pointer-events="stroke"/><ellipse cx="249" cy="102" rx="3" ry="3" fill="rgb(0, 0, 0)" stroke="rgb(0, 0, 0)" pointer-events="all"/><ellipse cx="298" cy="36" rx="3" ry="3" fill="rgb(0, 0, 0)" stroke="rgb(0, 0, 0)" pointer-events="all"/><path d="M 251.82 103.03 L 312.18 124.97" fill="none" stroke="rgb(0, 0, 0)" stroke-miterlimit="10" pointer-events="stroke"/><ellipse cx="249" cy="102" rx="3" ry="3" fill="rgb(0, 0, 0)" stroke="rgb(0, 0, 0)" pointer-events="all"/><ellipse cx="315" cy="126" rx="3" ry="3" fill="rgb(0, 0, 0)" stroke="rgb(0, 0, 0)" pointer-events="all"/><path d="M 355.01 32.2 L 300.99 35.8" fill="none" stroke="rgb(0, 0, 0)" stroke-miterlimit="10" pointer-events="stroke"/><ellipse cx="358" cy="32" rx="3" ry="3" fill="rgb(0, 0, 0)" stroke="rgb(0, 0, 0)" pointer-events="all"/><ellipse cx="298" cy="36" rx="3" ry="3" fill="rgb(0, 0, 0)" stroke="rgb(0, 0, 0)" pointer-events="all"/><path d="M 300.62 37.45 L 351.38 65.55" fill="none" stroke="rgb(0, 0, 0)" stroke-miterlimit="10" pointer-events="stroke"/><ellipse cx="298" cy="36" rx="3" ry="3" fill="rgb(0, 0, 0)" stroke="rgb(0, 0, 0)" pointer-events="all"/><ellipse cx="354" cy="67" rx="3" ry="3" fill="rgb(0, 0, 0)" stroke="rgb(0, 0, 0)" pointer-events="all"/><path d="M 357.66 34.98 L 354.34 64.02" fill="none" stroke="rgb(0, 0, 0)" stroke-miterlimit="10" pointer-events="stroke"/><ellipse cx="358" cy="32" rx="3" ry="3" fill="rgb(0, 0, 0)" stroke="rgb(0, 0, 0)" pointer-events="all"/><ellipse cx="354" cy="67" rx="3" ry="3" fill="rgb(0, 0, 0)" stroke="rgb(0, 0, 0)" pointer-events="all"/><path d="M 302.75 58.73 L 294.25 77.27" fill="none" stroke="rgb(0, 0, 0)" stroke-miterlimit="10" pointer-events="stroke"/><ellipse cx="304" cy="56" rx="3" ry="3" fill="rgb(0, 0, 0)" stroke="rgb(0, 0, 0)" pointer-events="all"/><ellipse cx="293" cy="80" rx="3" ry="3" fill="rgb(0, 0, 0)" stroke="rgb(0, 0, 0)" pointer-events="all"/><path d="M 311.5 67.66 L 295.5 78.34" fill="none" stroke="rgb(0, 0, 0)" stroke-miterlimit="10" pointer-events="stroke"/><ellipse cx="314" cy="66" rx="3" ry="3" fill="rgb(0, 0, 0)" stroke="rgb(0, 0, 0)" pointer-events="all"/><ellipse cx="293" cy="80" rx="3" ry="3" fill="rgb(0, 0, 0)" stroke="rgb(0, 0, 0)" pointer-events="all"/><path d="M 312.75 68.73 L 304.25 87.27" fill="none" stroke="rgb(0, 0, 0)" stroke-miterlimit="10" pointer-events="stroke"/><ellipse cx="314" cy="66" rx="3" ry="3" fill="rgb(0, 0, 0)" stroke="rgb(0, 0, 0)" pointer-events="all"/><ellipse cx="303" cy="90" rx="3" ry="3" fill="rgb(0, 0, 0)" stroke="rgb(0, 0, 0)" pointer-events="all"/><path d="M 321.5 77.66 L 305.5 88.34" fill="none" stroke="rgb(0, 0, 0)" stroke-miterlimit="10" pointer-events="stroke"/><ellipse cx="324" cy="76" rx="3" ry="3" fill="rgb(0, 0, 0)" stroke="rgb(0, 0, 0)" pointer-events="all"/><ellipse cx="303" cy="90" rx="3" ry="3" fill="rgb(0, 0, 0)" stroke="rgb(0, 0, 0)" pointer-events="all"/><path d="M 339.24 95.1 L 335.76 81.9" fill="none" stroke="rgb(0, 0, 0)" stroke-miterlimit="10" pointer-events="stroke"/><ellipse cx="340" cy="98" rx="3" ry="3" fill="rgb(0, 0, 0)" stroke="rgb(0, 0, 0)" pointer-events="all"/><ellipse cx="335" cy="79" rx="3" ry="3" fill="rgb(0, 0, 0)" stroke="rgb(0, 0, 0)" pointer-events="all"/><path d="M 326.79 96.99 L 326.21 105.01" fill="none" stroke="rgb(0, 0, 0)" stroke-miterlimit="10" pointer-events="stroke"/><ellipse cx="327" cy="94" rx="3" ry="3" fill="rgb(0, 0, 0)" stroke="rgb(0, 0, 0)" pointer-events="all"/><ellipse cx="326" cy="108" rx="3" ry="3" fill="rgb(0, 0, 0)" stroke="rgb(0, 0, 0)" pointer-events="all"/><path d="M 323.43 106.46 L 313.57 100.54" fill="none" stroke="rgb(0, 0, 0)" stroke-miterlimit="10" pointer-events="stroke"/><ellipse cx="326" cy="108" rx="3" ry="3" fill="rgb(0, 0, 0)" stroke="rgb(0, 0, 0)" pointer-events="all"/><ellipse cx="311" cy="99" rx="3" ry="3" fill="rgb(0, 0, 0)" stroke="rgb(0, 0, 0)" pointer-events="all"/><path d="M 337.13 97.12 L 329.87 94.88" fill="none" stroke="rgb(0, 0, 0)" stroke-miterlimit="10" pointer-events="stroke"/><ellipse cx="340" cy="98" rx="3" ry="3" fill="rgb(0, 0, 0)" stroke="rgb(0, 0, 0)" pointer-events="all"/><ellipse cx="327" cy="94" rx="3" ry="3" fill="rgb(0, 0, 0)" stroke="rgb(0, 0, 0)" pointer-events="all"/><path d="M 351.5 107.66 L 335.5 118.34" fill="none" stroke="rgb(0, 0, 0)" stroke-miterlimit="10" pointer-events="stroke"/><ellipse cx="354" cy="106" rx="3" ry="3" fill="rgb(0, 0, 0)" stroke="rgb(0, 0, 0)" pointer-events="all"/><ellipse cx="333" cy="120" rx="3" ry="3" fill="rgb(0, 0, 0)" stroke="rgb(0, 0, 0)" pointer-events="all"/><path d="M 352.82 103.24 L 349.18 94.76" fill="none" stroke="rgb(0, 0, 0)" stroke-miterlimit="10" pointer-events="stroke"/><ellipse cx="354" cy="106" rx="3" ry="3" fill="rgb(0, 0, 0)" stroke="rgb(0, 0, 0)" pointer-events="all"/><ellipse cx="348" cy="92" rx="3" ry="3" fill="rgb(0, 0, 0)" stroke="rgb(0, 0, 0)" pointer-events="all"/><path d="M 358.82 117.24 L 355.18 108.76" fill="none" stroke="rgb(0, 0, 0)" stroke-miterlimit="10" pointer-events="stroke"/><ellipse cx="360" cy="120" rx="3" ry="3" fill="rgb(0, 0, 0)" stroke="rgb(0, 0, 0)" pointer-events="all"/><ellipse cx="354" cy="106" rx="3" ry="3" fill="rgb(0, 0, 0)" stroke="rgb(0, 0, 0)" pointer-events="all"/><path d="M 370.5 124.66 L 354.5 135.34" fill="none" stroke="rgb(0, 0, 0)" stroke-miterlimit="10" pointer-events="stroke"/><ellipse cx="373" cy="123" rx="3" ry="3" fill="rgb(0, 0, 0)" stroke="rgb(0, 0, 0)" pointer-events="all"/><ellipse cx="352" cy="137" rx="3" ry="3" fill="rgb(0, 0, 0)" stroke="rgb(0, 0, 0)" pointer-events="all"/><path d="M 362.79 132.99 L 362.21 141.01" fill="none" stroke="rgb(0, 0, 0)" stroke-miterlimit="10" pointer-events="stroke"/><ellipse cx="363" cy="130" rx="3" ry="3" fill="rgb(0, 0, 0)" stroke="rgb(0, 0, 0)" pointer-events="all"/><ellipse cx="362" cy="144" rx="3" ry="3" fill="rgb(0, 0, 0)" stroke="rgb(0, 0, 0)" pointer-events="all"/><path d="M 373.13 133.12 L 365.87 130.88" fill="none" stroke="rgb(0, 0, 0)" stroke-miterlimit="10" pointer-events="stroke"/><ellipse cx="376" cy="134" rx="3" ry="3" fill="rgb(0, 0, 0)" stroke="rgb(0, 0, 0)" pointer-events="all"/><ellipse cx="363" cy="130" rx="3" ry="3" fill="rgb(0, 0, 0)" stroke="rgb(0, 0, 0)" pointer-events="all"/><path d="M 351.07 66.36 L 306.93 56.64" fill="none" stroke="rgb(0, 0, 0)" stroke-miterlimit="10" pointer-events="stroke"/><ellipse cx="354" cy="67" rx="3" ry="3" fill="rgb(0, 0, 0)" stroke="rgb(0, 0, 0)" pointer-events="all"/><ellipse cx="304" cy="56" rx="3" ry="3" fill="rgb(0, 0, 0)" stroke="rgb(0, 0, 0)" pointer-events="all"/><path d="M 290.32 81.34 L 251.68 100.66" fill="none" stroke="rgb(0, 0, 0)" stroke-miterlimit="10" pointer-events="stroke"/><ellipse cx="293" cy="80" rx="3" ry="3" fill="rgb(0, 0, 0)" stroke="rgb(0, 0, 0)" pointer-events="all"/><ellipse cx="249" cy="102" rx="3" ry="3" fill="rgb(0, 0, 0)" stroke="rgb(0, 0, 0)" pointer-events="all"/><path d="M 349.12 136.15 L 317.88 126.85" fill="none" stroke="rgb(0, 0, 0)" stroke-miterlimit="10" pointer-events="stroke"/><ellipse cx="352" cy="137" rx="3" ry="3" fill="rgb(0, 0, 0)" stroke="rgb(0, 0, 0)" pointer-events="all"/><ellipse cx="315" cy="126" rx="3" ry="3" fill="rgb(0, 0, 0)" stroke="rgb(0, 0, 0)" pointer-events="all"/><path d="M 337.54 77.4 L 351.46 68.6" fill="none" stroke="rgb(0, 0, 0)" stroke-miterlimit="10" pointer-events="stroke"/><ellipse cx="335" cy="79" rx="3" ry="3" fill="rgb(0, 0, 0)" stroke="rgb(0, 0, 0)" pointer-events="all"/><ellipse cx="354" cy="67" rx="3" ry="3" fill="rgb(0, 0, 0)" stroke="rgb(0, 0, 0)" pointer-events="all"/><path d="M 354 70 L 354 103" fill="none" stroke="rgb(0, 0, 0)" stroke-miterlimit="10" pointer-events="stroke"/><ellipse cx="354" cy="67" rx="3" ry="3" fill="rgb(0, 0, 0)" stroke="rgb(0, 0, 0)" pointer-events="all"/><ellipse cx="354" cy="106" rx="3" ry="3" fill="rgb(0, 0, 0)" stroke="rgb(0, 0, 0)" pointer-events="all"/><path d="M 356.94 67.6 L 405.06 77.4" fill="none" stroke="rgb(0, 0, 0)" stroke-miterlimit="10" pointer-events="stroke"/><ellipse cx="354" cy="67" rx="3" ry="3" fill="rgb(0, 0, 0)" stroke="rgb(0, 0, 0)" pointer-events="all"/><ellipse cx="408" cy="78" rx="3" ry="3" fill="rgb(0, 0, 0)" stroke="rgb(0, 0, 0)" pointer-events="all"/><path d="M 374.84 120.63 L 406.16 80.37" fill="none" stroke="rgb(0, 0, 0)" stroke-miterlimit="10" pointer-events="stroke"/><ellipse cx="373" cy="123" rx="3" ry="3" fill="rgb(0, 0, 0)" stroke="rgb(0, 0, 0)" pointer-events="all"/><ellipse cx="408" cy="78" rx="3" ry="3" fill="rgb(0, 0, 0)" stroke="rgb(0, 0, 0)" pointer-events="all"/><path d="M 375.17 125.08 L 394.83 143.92" fill="none" stroke="rgb(0, 0, 0)" stroke-miterlimit="10" pointer-events="stroke"/><ellipse cx="373" cy="123" rx="3" ry="3" fill="rgb(0, 0, 0)" stroke="rgb(0, 0, 0)" pointer-events="all"/><ellipse cx="397" cy="146" rx="3" ry="3" fill="rgb(0, 0, 0)" stroke="rgb(0, 0, 0)" pointer-events="all"/><path d="M 352.69 139.92 L 359.31 168.08" fill="none" stroke="rgb(0, 0, 0)" stroke-miterlimit="10" pointer-events="stroke"/><ellipse cx="352" cy="137" rx="3" ry="3" fill="rgb(0, 0, 0)" stroke="rgb(0, 0, 0)" pointer-events="all"/><ellipse cx="360" cy="171" rx="3" ry="3" fill="rgb(0, 0, 0)" stroke="rgb(0, 0, 0)" pointer-events="all"/><path d="M 354.96 69.84 L 372.04 120.16" fill="none" stroke="rgb(0, 0, 0)" stroke-miterlimit="10" pointer-events="stroke"/><ellipse cx="354" cy="67" rx="3" ry="3" fill="rgb(0, 0, 0)" stroke="rgb(0, 0, 0)" pointer-events="all"/><ellipse cx="373" cy="123" rx="3" ry="3" fill="rgb(0, 0, 0)" stroke="rgb(0, 0, 0)" pointer-events="all"/><path d="M 294.29 82.71 L 313.71 123.29" fill="none" stroke="rgb(0, 0, 0)" stroke-miterlimit="10" pointer-events="stroke"/><ellipse cx="293" cy="80" rx="3" ry="3" fill="rgb(0, 0, 0)" stroke="rgb(0, 0, 0)" pointer-events="all"/><ellipse cx="315" cy="126" rx="3" ry="3" fill="rgb(0, 0, 0)" stroke="rgb(0, 0, 0)" pointer-events="all"/><path d="M 324.44 110.56 L 316.56 123.44" fill="none" stroke="rgb(0, 0, 0)" stroke-miterlimit="10" pointer-events="stroke"/><ellipse cx="326" cy="108" rx="3" ry="3" fill="rgb(0, 0, 0)" stroke="rgb(0, 0, 0)" pointer-events="all"/><ellipse cx="315" cy="126" rx="3" ry="3" fill="rgb(0, 0, 0)" stroke="rgb(0, 0, 0)" pointer-events="all"/></g></svg>